<?xml version="1.0" encoding="utf-8"?>
<!-- Generator: Adobe Illustrator 22.0.0, SVG Export Plug-In . SVG Version: 6.00 Build 0)  -->
<svg version="1.1" xmlns="http://www.w3.org/2000/svg" xmlns:xlink="http://www.w3.org/1999/xlink" x="0px" y="0px"
	 viewBox="0 0 103.1 88.1" style="enable-background:new 0 0 103.1 88.1;" xml:space="preserve">
<style type="text/css">
	.st0{fill:none;}
	.st1{fill:none;stroke:#000000;stroke-miterlimit:10;}
	.st2{fill:#FFF;}
	.st3{fill:none;stroke:#FFF;stroke-width:2;stroke-miterlimit:10;}
	.st4{fill:none;stroke:#FFF;stroke-miterlimit:10;}
</style>
<g id="Calque_2">
	<line class="st0" x1="4.5" y1="35.9" x2="4.5" y2="35.9"/>
</g>
<g id="Logo">
	<path class="st1" d="M58,56.5"/>
	<path class="st2" d="M23.8,69.6c0.6,0.3,1.8,0.5,1.8,1.3c0,0.7-0.2,1.4-0.3,2c-0.2,2.2,0.1,4.4,1,6.4c1.2,2.7,3.5,4.3,6.2,5.4
		c1.4,0.6,2.8,0.6,4.3,0.7c1.9,0.2,3.8,0.3,5.7,0.4c8.4,0.4,19.4,0.4,27.8,0.2c0.4,0,2-0.5,1.7,0.6c-0.2,0.7-3,0.5-3.4,0.6
		c-4.6,0.2-9.3,0.1-13.9,0.1c-6.6,0-13.2-0.2-19.8-0.5c-2.1-0.1-3.6-0.2-5.5-1.2c-4.1-2.3-5.9-6.8-6.2-11.3c-0.1-0.9-0.1-1.8,0-2.7
		C23.1,71.3,23,69.3,23.8,69.6z"/>
	<circle class="st2" cx="77" cy="73.8" r="2"/>
	<path class="st2" d="M76.1,80.8c-0.5-0.1-0.7-0.2-0.9-0.4c-0.3-0.3-0.3-0.8-0.3-1c0.1-0.9,0.9-2.2,2.2-2.1c1.2,0.1,1.9,1.3,1.8,2.3
		c0,0.1-0.1,0.9-0.8,1.2C77.7,81.1,77.2,81,76.1,80.8z"/>
	<path class="st2" d="M78.5,80.5c-0.9,1.8-2.1,3.4-3.4,4.9c-0.3,0.4-1.2,0.8-1.3,0c0-0.5,0.6-1.1,0.9-1.4c0.5-0.5,1-1.1,1.3-1.7
		c0.2-0.4,0.4-0.8,0.3-1.2c0-0.4-0.3-0.8-0.2-1.1C76.6,79,78.1,80.2,78.5,80.5z"/>
	<path class="st2" d="M57.1,74.9c0.4-0.9,1.5-1.6,2.6-1.4c0.8,0.2,1.6,0.8,1.8,1.6c0.5,1.4-0.8,3-2.1,3.3c-0.2,0-1,0.2-1.6-0.3
		c-0.7-0.4-0.8-1.2-0.9-1.5C56.9,76.4,56.7,75.6,57.1,74.9z"/>
	<path class="st3" d="M14.8,66.9c-2.2-0.2-6.9-0.7-10.1-4.3c-1.7-1.9-3.3-5-3.2-11C1.5,43.9,4.4,27.6,18.3,15
		c3.7-3.4,14.5-12.8,31.2-13.6c18.6-0.8,31.4,9.8,35.3,13.4C96.5,25.6,99.2,38.5,100,42.5c0.9,4.8,3.6,19-3.5,24.9
		c-1.2,1-3.8,2.6-8.6,2.6C51.6,69.1,24.6,67.9,14.8,66.9z"/>
	<path class="st2" d="M41.7,75.1c0.3-0.9,1.3-1.7,2.5-1.7c0.9,0.1,1.7,0.6,2,1.4c0.6,1.4-0.5,3.1-1.7,3.5c-0.2,0.1-1,0.3-1.7-0.1
		c-0.7-0.4-0.9-1.1-1-1.4C41.7,76.6,41.4,75.9,41.7,75.1z"/>
	<path class="st4" d="M49.8,82.9c0.5,0.1,2.4,0.5,4.3-0.5c1.2-0.7,1.9-1.6,2.2-2.1"/>
</g>
<g id="Calque_3">
</g>
</svg>
